<svg width="8" height="13" viewBox="0 0 8 13" fill="none" xmlns="http://www.w3.org/2000/svg">
<path d="M6.30953 12.6C6.20139 12.6005 6.09424 12.5794 5.99436 12.5379C5.89448 12.4965 5.80388 12.4355 5.72789 12.3585L0.240712 6.87137C0.0865766 6.71704 0 6.50784 0 6.28972C0 6.07161 0.0865766 5.86241 0.240712 5.70808L5.72789 0.220905C5.88392 0.0755163 6.09029 -0.00363401 6.30352 0.000128232C6.51675 0.00389048 6.7202 0.0902716 6.871 0.241074C7.02181 0.391876 7.10819 0.595324 7.11195 0.808557C7.11571 1.02179 7.03656 1.22816 6.89117 1.38419L1.98564 6.28972L6.89117 11.1953C7.04531 11.3496 7.13188 11.5588 7.13188 11.7769C7.13188 11.995 7.04531 12.2042 6.89117 12.3585C6.81518 12.4355 6.72459 12.4965 6.62471 12.5379C6.52483 12.5794 6.41767 12.6005 6.30953 12.6Z" fill="black"/>
</svg>
