<svg width="22" height="22" viewBox="0 0 22 22" fill="none" xmlns="http://www.w3.org/2000/svg">
<path d="M15.5833 1.83337C15.0792 1.83337 14.6667 2.24587 14.6667 2.75004V3.66671H7.33333V2.75004C7.33333 2.24587 6.92083 1.83337 6.41667 1.83337C5.9125 1.83337 5.5 2.24587 5.5 2.75004V3.66671H4.58333C3.56583 3.66671 2.75917 4.49171 2.75917 5.50004L2.75 18.3334C2.75 19.3417 3.56583 20.1667 4.58333 20.1667H17.4167C18.425 20.1667 19.25 19.3417 19.25 18.3334V5.50004C19.25 4.49171 18.425 3.66671 17.4167 3.66671H16.5V2.75004C16.5 2.24587 16.0875 1.83337 15.5833 1.83337ZM17.4167 18.3334H4.58333V9.16671H17.4167V18.3334ZM10.0833 11.9167C10.0833 11.4125 10.4958 11 11 11C11.5042 11 11.9167 11.4125 11.9167 11.9167C11.9167 12.4209 11.5042 12.8334 11 12.8334C10.4958 12.8334 10.0833 12.4209 10.0833 11.9167ZM6.41667 11.9167C6.41667 11.4125 6.82917 11 7.33333 11C7.8375 11 8.25 11.4125 8.25 11.9167C8.25 12.4209 7.8375 12.8334 7.33333 12.8334C6.82917 12.8334 6.41667 12.4209 6.41667 11.9167ZM13.75 11.9167C13.75 11.4125 14.1625 11 14.6667 11C15.1708 11 15.5833 11.4125 15.5833 11.9167C15.5833 12.4209 15.1708 12.8334 14.6667 12.8334C14.1625 12.8334 13.75 12.4209 13.75 11.9167ZM10.0833 15.5834C10.0833 15.0792 10.4958 14.6667 11 14.6667C11.5042 14.6667 11.9167 15.0792 11.9167 15.5834C11.9167 16.0875 11.5042 16.5 11 16.5C10.4958 16.5 10.0833 16.0875 10.0833 15.5834ZM6.41667 15.5834C6.41667 15.0792 6.82917 14.6667 7.33333 14.6667C7.8375 14.6667 8.25 15.0792 8.25 15.5834C8.25 16.0875 7.8375 16.5 7.33333 16.5C6.82917 16.5 6.41667 16.0875 6.41667 15.5834ZM13.75 15.5834C13.75 15.0792 14.1625 14.6667 14.6667 14.6667C15.1708 14.6667 15.5833 15.0792 15.5833 15.5834C15.5833 16.0875 15.1708 16.5 14.6667 16.5C14.1625 16.5 13.75 16.0875 13.75 15.5834Z" fill="black" fill-opacity="0.5"/>
</svg>
