<svg width="25" height="26" viewBox="0 0 25 26" fill="none" xmlns="http://www.w3.org/2000/svg">
<path d="M19.0649 6.60771C18.6587 6.20917 18.0024 6.20917 17.5962 6.60771L12.5024 11.5947L7.40869 6.5975C7.00244 6.19895 6.34619 6.19895 5.93994 6.5975C5.53369 6.99604 5.53369 7.63985 5.93994 8.0384L11.0337 13.0356L5.93994 18.0328C5.53369 18.4313 5.53369 19.0751 5.93994 19.4737C6.34619 19.8722 7.00244 19.8722 7.40869 19.4737L12.5024 14.4765L17.5962 19.4737C18.0024 19.8722 18.6587 19.8722 19.0649 19.4737C19.4712 19.0751 19.4712 18.4313 19.0649 18.0328L13.9712 13.0356L19.0649 8.0384C19.4608 7.65007 19.4608 6.99604 19.0649 6.60771Z" fill="black"/>
</svg>
