<svg width="4" height="16" viewBox="0 0 4 16" fill="none" xmlns="http://www.w3.org/2000/svg">
<path d="M1.6 9.59999C2.48366 9.59999 3.2 8.88365 3.2 7.99999C3.2 7.11634 2.48366 6.39999 1.6 6.39999C0.716344 6.39999 0 7.11634 0 7.99999C0 8.88365 0.716344 9.59999 1.6 9.59999Z" fill="black"/>
<path d="M1.6 3.2C2.48366 3.2 3.2 2.48366 3.2 1.6C3.2 0.716344 2.48366 0 1.6 0C0.716344 0 0 0.716344 0 1.6C0 2.48366 0.716344 3.2 1.6 3.2Z" fill="black"/>
<path d="M1.6 16C2.48366 16 3.2 15.2836 3.2 14.4C3.2 13.5163 2.48366 12.8 1.6 12.8C0.716344 12.8 0 13.5163 0 14.4C0 15.2836 0.716344 16 1.6 16Z" fill="black"/>
</svg>
