<svg width="11" height="10" viewBox="0 0 11 10" fill="none" xmlns="http://www.w3.org/2000/svg">
<path d="M6.22096 4.81758V1.02186C6.22096 0.901059 6.16897 0.785205 6.07643 0.699784C5.9839 0.614364 5.85839 0.566376 5.72753 0.566376C5.59666 0.566376 5.47115 0.614364 5.37862 0.699784C5.28608 0.785205 5.23409 0.901059 5.23409 1.02186V4.81758H1.12216C0.991289 4.81758 0.865783 4.86557 0.773246 4.95099C0.68071 5.03641 0.628723 5.15226 0.628723 5.27306C0.628723 5.39386 0.68071 5.50972 0.773246 5.59514C0.865783 5.68056 0.991289 5.72855 1.12216 5.72855H5.23409V9.52426C5.2358 9.64458 5.28833 9.75952 5.3805 9.8446C5.47267 9.92968 5.59719 9.97818 5.72753 9.97975C5.85839 9.97975 5.9839 9.93176 6.07643 9.84634C6.16897 9.76092 6.22096 9.64507 6.22096 9.52426V5.72855H10.3329C10.4638 5.72855 10.5893 5.68056 10.6818 5.59514C10.7743 5.50972 10.8263 5.39386 10.8263 5.27306C10.8246 5.15275 10.7721 5.03781 10.6799 4.95272C10.5877 4.86764 10.4632 4.81915 10.3329 4.81758H6.22096Z" fill="white"/>
</svg>
