<svg width="42" height="52" viewBox="0 0 42 52" fill="none" xmlns="http://www.w3.org/2000/svg">
<path d="M40.1449 14.1425L27.6674 1.66502C26.7115 0.709187 25.394 0.166687 24.0249 0.166687H5.50236C2.66069 0.166687 0.361527 2.49169 0.361527 5.33335L0.335693 46.6667C0.335693 49.5084 2.63486 51.8334 5.47653 51.8334H36.5024C39.344 51.8334 41.669 49.5084 41.669 46.6667V17.8109C41.669 16.4417 41.1265 15.1242 40.1449 14.1425ZM28.2357 33.75H23.5857V41.5C23.5857 42.9209 22.4232 44.0834 21.0024 44.0834C19.5815 44.0834 18.419 42.9209 18.419 41.5V33.75H13.7949C12.6324 33.75 12.064 32.355 12.8907 31.5542L20.124 24.3467C20.6407 23.8559 21.4415 23.8559 21.9582 24.3467L29.1657 31.5542C29.9407 32.355 29.3724 33.75 28.2357 33.75ZM26.169 18.25C24.7482 18.25 23.5857 17.0875 23.5857 15.6667V4.04169L37.794 18.25H26.169Z" fill="#DDDDDD"/>
</svg>
