<svg width="23" height="21" viewBox="0 0 23 21" fill="none" xmlns="http://www.w3.org/2000/svg">
<path d="M11.2241 10.8621C10.15 10.8621 9.09994 10.5436 8.20681 9.94679C7.31368 9.35002 6.61757 8.5018 6.20651 7.50941C5.79544 6.51702 5.68789 5.42502 5.89745 4.3715C6.10701 3.31798 6.62426 2.35026 7.38381 1.59072C8.14335 0.831172 9.11107 0.313916 10.1646 0.104358C11.2181 -0.1052 12.3101 0.00235319 13.3025 0.413416C14.2949 0.824478 15.1431 1.52059 15.7399 2.41372C16.3366 3.30685 16.6552 4.35688 16.6552 5.43104C16.6552 6.87144 16.083 8.25285 15.0645 9.27137C14.0459 10.2899 12.6645 10.8621 11.2241 10.8621ZM11.2241 2.17242C10.5796 2.17242 9.94962 2.36353 9.41374 2.72159C8.87786 3.07966 8.4602 3.58858 8.21356 4.18402C7.96692 4.77946 7.90239 5.43466 8.02812 6.06677C8.15386 6.69888 8.46421 7.27951 8.91994 7.73524C9.37566 8.19096 9.9563 8.50132 10.5884 8.62705C11.2205 8.75279 11.8757 8.68825 12.4712 8.44162C13.0666 8.19498 13.5755 7.77731 13.9336 7.24144C14.2916 6.70556 14.4828 6.07554 14.4828 5.43104C14.4828 4.5668 14.1394 3.73796 13.5283 3.12685C12.9172 2.51574 12.0884 2.17242 11.2241 2.17242Z" fill="white"/>
<path d="M21.3621 21C21.0752 20.9963 20.8011 20.8806 20.5982 20.6777C20.3953 20.4748 20.2796 20.2007 20.2759 19.9138C20.2759 17.0897 18.7407 15.2069 11.2241 15.2069C3.70759 15.2069 2.17242 17.0897 2.17242 19.9138C2.17242 20.2019 2.05798 20.4782 1.85427 20.6819C1.65057 20.8856 1.37429 21 1.08621 21C0.798128 21 0.521846 20.8856 0.318143 20.6819C0.114439 20.4782 0 20.2019 0 19.9138C0 13.0345 7.86415 13.0345 11.2241 13.0345C14.5842 13.0345 22.4483 13.0345 22.4483 19.9138C22.4445 20.2007 22.3289 20.4748 22.126 20.6777C21.9231 20.8806 21.649 20.9963 21.3621 21Z" fill="white"/>
</svg>
